<svg width="16" height="16" viewBox="0 0 16 16" fill="none" xmlns="http://www.w3.org/2000/svg">
<g clip-path="url(#clip0_200_75)">
<path fill-rule="evenodd" clip-rule="evenodd" d="M9.33334 1.33333C9.33334 1.04853 9.51426 0.795179 9.78365 0.702753C10.053 0.610321 10.3514 0.699226 10.5262 0.924039L15.1929 6.92407C15.3802 7.1648 15.3802 7.50187 15.1929 7.7426L10.5262 13.7426C10.3514 13.9675 10.053 14.0563 9.78365 13.9639C9.51426 13.8715 9.33334 13.6181 9.33334 13.3333V10.6735C5.74748 10.7482 4.02461 11.4287 3.15914 12.1688C2.33641 12.8723 2.18661 13.6993 2.02954 14.5661C2.01614 14.6401 2.00261 14.7147 1.98868 14.7892C1.92681 15.1199 1.62828 15.3527 1.29248 15.3321C0.956743 15.3115 0.688943 15.0439 0.667943 14.7082C0.553676 12.8762 0.725277 10.2215 2.01941 8.00047C3.27528 5.84513 5.53701 4.18797 9.33334 4.01494V1.33333Z" fill="#342F2C"/>
</g>
<defs>
<clipPath id="clip0_200_75">
<rect width="16" height="16" fill="white" transform="matrix(-1 0 0 1 16 0)"/>
</clipPath>
</defs>
</svg>
