<svg width="15" height="15" viewBox="0 0 15 15" fill="none" xmlns="http://www.w3.org/2000/svg">
<g clip-path="url(#clip0_200_44)">
<path fill-rule="evenodd" clip-rule="evenodd" d="M6.25 1.25001C6.25 0.983001 6.08039 0.745488 5.82784 0.658838C5.57529 0.572183 5.29558 0.655532 5.13166 0.866295L0.756656 6.49132C0.581115 6.71701 0.581115 7.03301 0.756656 7.25869L5.13166 12.8837C5.29558 13.0945 5.57529 13.1778 5.82784 13.0912C6.08039 13.0045 6.25 12.767 6.25 12.5V10.0064C9.61175 10.0764 11.2269 10.7144 12.0383 11.4083C12.8096 12.0678 12.9501 12.8431 13.0973 13.6558C13.1099 13.7251 13.1226 13.7951 13.1356 13.8649C13.1936 14.1749 13.4735 14.3931 13.7883 14.3738C14.1031 14.3545 14.3541 14.1037 14.3738 13.7889C14.4809 12.0714 14.3201 9.58269 13.1068 7.50044C11.9294 5.47982 9.80906 3.92623 6.25 3.76401V1.25001Z" fill="#342F2C"/>
</g>
<defs>
<clipPath id="clip0_200_44">
<rect width="15" height="15" fill="white"/>
</clipPath>
</defs>
</svg>
