<svg width="17" height="17" viewBox="0 0 17 17" fill="none" xmlns="http://www.w3.org/2000/svg">
<path d="M11.2262 4.28166L14.3243 8.80571L8.68355 7.99232L5.85307 2.85324L11.2262 4.28166Z" fill="#56504C"/>
<path d="M2.32207 8.50671L5.85291 2.85321L8.68339 7.99229L5.24005 13.3627L2.32207 8.50671Z" fill="#4C4641"/>
<path d="M8.68351 7.99234L14.3242 8.80574L10.9684 13.8931L5.24016 13.3628L8.68351 7.99234Z" fill="#3B3632"/>
<path d="M5.94536 8.60179C5.76132 8.97615 5.3596 9.15549 5.04809 9.00235C4.73658 8.84922 4.63325 8.42159 4.81728 8.04723C5.00132 7.67287 5.40304 7.49353 5.71455 7.64666C6.02606 7.7998 6.12939 8.22743 5.94536 8.60179Z" fill="white"/>
<path d="M5.94536 8.60179C5.76132 8.97615 5.3596 9.15549 5.04809 9.00235C4.73658 8.84922 4.63325 8.42159 4.81728 8.04723C5.00132 7.67287 5.40304 7.49353 5.71455 7.64666C6.02606 7.7998 6.12939 8.22743 5.94536 8.60179Z" fill="white"/>
<path d="M4.16972 8.82823C3.98569 9.20259 3.58397 9.38193 3.27246 9.22879C2.96095 9.07566 2.85761 8.64803 3.04165 8.27367C3.22569 7.89931 3.62741 7.71997 3.93891 7.8731C4.25042 8.02624 4.35376 8.45387 4.16972 8.82823Z" fill="white"/>
<path d="M4.16972 8.82823C3.98569 9.20259 3.58397 9.38193 3.27246 9.22879C2.96095 9.07566 2.85761 8.64803 3.04165 8.27367C3.22569 7.89931 3.62741 7.71997 3.93891 7.8731C4.25042 8.02624 4.35376 8.45387 4.16972 8.82823Z" fill="white"/>
<path d="M7.72087 8.37535C7.53683 8.74971 7.13512 8.92905 6.82361 8.77591C6.5121 8.62278 6.40876 8.19515 6.5928 7.82079C6.77683 7.44643 7.17855 7.26709 7.49006 7.42022C7.80157 7.57336 7.90491 8.00098 7.72087 8.37535Z" fill="white"/>
<path d="M7.72087 8.37535C7.53683 8.74971 7.13512 8.92905 6.82361 8.77591C6.5121 8.62278 6.40876 8.19515 6.5928 7.82079C6.77683 7.44643 7.17855 7.26709 7.49006 7.42022C7.80157 7.57336 7.90491 8.00098 7.72087 8.37535Z" fill="white"/>
<path d="M9.6193 10.0346C9.2628 10.2512 8.82767 10.1863 8.64742 9.88969C8.46717 9.59304 8.61006 9.17696 8.96656 8.96034C9.32306 8.74372 9.75818 8.80859 9.93843 9.10524C10.1187 9.40189 9.9758 9.81797 9.6193 10.0346Z" fill="white"/>
<path d="M9.6193 10.0346C9.2628 10.2512 8.82767 10.1863 8.64742 9.88969C8.46717 9.59304 8.61006 9.17696 8.96656 8.96034C9.32306 8.74372 9.75818 8.80859 9.93843 9.10524C10.1187 9.40189 9.9758 9.81797 9.6193 10.0346Z" fill="white"/>
<path d="M10.9008 12.9117C10.5443 13.1283 10.1092 13.0634 9.92892 12.7668C9.74867 12.4701 9.89155 12.054 10.2481 11.8374C10.6046 11.6208 11.0397 11.6857 11.2199 11.9823C11.4002 12.279 11.2573 12.695 10.9008 12.9117Z" fill="white"/>
<path d="M10.9008 12.9117C10.5443 13.1283 10.1092 13.0634 9.92892 12.7668C9.74867 12.4701 9.89155 12.054 10.2481 11.8374C10.6046 11.6208 11.0397 11.6857 11.2199 11.9823C11.4002 12.279 11.2573 12.695 10.9008 12.9117Z" fill="white"/>
<path d="M9.73531 6.60092C9.32276 6.5391 9.03003 6.2107 9.08147 5.86742C9.13291 5.52414 9.50905 5.29597 9.9216 5.35779C10.3341 5.41961 10.6269 5.74801 10.5754 6.09129C10.524 6.43458 10.1479 6.66275 9.73531 6.60092Z" fill="white"/>
<path d="M9.73531 6.60092C9.32276 6.5391 9.03003 6.2107 9.08147 5.86742C9.13291 5.52414 9.50905 5.29597 9.9216 5.35779C10.3341 5.41961 10.6269 5.74801 10.5754 6.09129C10.524 6.43458 10.1479 6.66275 9.73531 6.60092Z" fill="white"/>
</svg>
