<svg width="28" height="29" viewBox="0 0 28 29" fill="none" xmlns="http://www.w3.org/2000/svg">
<g clip-path="url(#clip0_89_385)">
<path d="M10.5 25.0906C10.5 25.674 10.9667 26.2573 11.6667 26.2573H16.3334C17.0334 26.2573 17.5 25.674 17.5 25.0906V23.924H10.5V25.0906ZM14 2.92395C9.45004 2.92395 5.83337 6.54062 5.83337 11.0906C5.83337 13.8906 7.23337 16.3406 9.33337 17.7406V20.424C9.33337 21.0073 9.80004 21.5906 10.5 21.5906H17.5C18.2 21.5906 18.6667 21.0073 18.6667 20.424V17.7406C20.7667 16.2239 22.1667 13.7739 22.1667 11.0906C22.1667 6.54062 18.55 2.92395 14 2.92395Z" fill="#ED9A32"/>
<line x1="2.08396" y1="2.22049" x2="24.084" y2="25.2205" stroke="#ED9A32" stroke-width="3"/>
</g>
<defs>
<clipPath id="clip0_89_385">
<rect width="28" height="28" fill="white" transform="translate(0 0.590637)"/>
</clipPath>
</defs>
</svg>
